<svg width="39" height="50" viewBox="0 0 39 50" fill="none" xmlns="http://www.w3.org/2000/svg">
<path d="M20.6973 13.4049C18.4136 15.8852 17.8894 18.6222 16.3111 21.4374C15.4446 22.9829 12.8604 24.5691 11.5124 25.8728C11.2701 26.1071 10.2879 27.7648 10.3391 27.7603C11.6297 27.6462 13.2317 26.1724 14.0036 25.2278C14.7533 24.3105 15.6721 23.9132 16.1852 22.7887C16.734 21.5858 17.4821 20.6455 18.5517 19.8802C19.1955 19.4196 23.4765 15.7275 21.0034 18.361C19.2504 20.2276 17.2318 21.8289 15.5852 23.795C14.6358 24.9286 13.2433 25.6882 12.5174 26.992C10.6519 30.3427 13.578 27.7761 15.107 26.4988C16.984 24.9305 18.4271 21.9171 20.5868 20.9083C21.0347 20.6992 21.6649 19.912 22.1825 19.9556C22.8153 20.0089 19.7607 23.6631 19.4471 24.0292C18.0262 25.6881 16.1067 26.7373 14.5027 28.2038C14.233 28.4504 10.9741 31.7499 13.0792 30.7835C16.6632 29.1383 19.4978 25.7708 21.8886 22.8224C22.6671 21.8623 23.5754 20.9919 24.526 20.2014C25.451 19.4321 24.2474 21.0307 24.2413 21.0382C22.8213 22.7845 21.3968 24.4813 20.0832 26.3136C18.8773 27.9956 14.7576 32.6517 16.0864 31.065C17.8828 28.9202 20.1338 27.2856 22.2574 25.4984C23.5377 24.4209 24.9223 23.2655 26.0459 22.0206C27.9448 19.9167 23.4918 25.4847 23.0598 25.9277C21.857 27.161 20.5857 28.3354 19.452 29.6349C18.7489 30.4407 17.9859 31.5097 19.5573 30.3995C21.8001 28.815 23.7169 26.691 25.976 25.1791C27.792 23.9637 23.5166 28.793 22.3536 30.643C21.4603 32.0641 20.4882 33.4287 19.5719 34.834C18.8616 35.9234 19.028 35.5234 19.6156 35.755" stroke="#B6E3E9" stroke-width="7" stroke-linecap="round"/>
<path d="M17.4116 4.79244C14.3244 12.6248 12.121 21.098 4.62163 25.8684C3.39737 26.6471 7.90299 27.9414 8.68552 28.2498C11.4435 29.3369 13.0126 31.6503 14.5739 34.079C16.8794 37.6656 18.5817 41.7163 20.7254 45.3393C21.9499 47.4087 23.7964 36.0646 24.7851 33.556C26.1497 30.094 27.8456 26.2237 31.2932 24.297C38.2698 20.3981 33.0626 20.3167 28.8403 18.6525C20.6952 15.4421 20.8743 10.8306 17.8105 3.78026" stroke="#7B604E" stroke-width="7" stroke-linecap="round"/>
</svg>
