<svg width="61" height="73" viewBox="0 0 61 73" fill="none" xmlns="http://www.w3.org/2000/svg">
<path d="M34.5481 18.7776C30.6578 23.3735 29.9264 28.2963 27.3196 33.4373C25.8886 36.2596 21.3955 39.2824 19.0874 41.7091C18.6725 42.1453 17.0433 45.1764 17.1343 45.1645C19.4286 44.8648 22.1775 42.1156 23.4846 40.3727C24.754 38.6799 26.3639 37.9026 27.1956 35.8579C28.0854 33.6706 29.3503 31.937 31.2019 30.4918C32.3164 29.6219 39.6803 22.715 35.4634 27.5984C32.4745 31.0597 28.9918 34.0673 26.2 37.6982C24.5903 39.7916 22.1621 41.2508 20.964 43.6313C17.8848 49.7492 22.9149 44.9515 25.548 42.5583C28.7806 39.6203 31.1312 34.1356 34.9098 32.1748C35.6934 31.7682 36.7593 30.3167 37.6862 30.3559C38.8194 30.4039 33.6409 37.1519 33.1085 37.8285C30.6967 40.8944 27.3498 42.9096 24.5968 45.6458C24.1339 46.1058 18.5644 52.2361 22.2488 50.355C28.5216 47.1524 33.3287 40.9324 37.3752 35.4932C38.6929 33.7221 40.2489 32.1013 41.8861 30.62C43.4793 29.1785 41.4508 32.1206 41.4405 32.1344C39.0367 35.3562 36.6212 38.49 34.4137 41.8573C32.3873 44.9485 25.3828 53.5635 27.6358 50.6333C30.6814 46.6724 34.5764 43.5879 38.2325 40.2409C40.4369 38.2229 42.8216 36.058 44.7337 33.753C47.9654 29.8574 40.4342 40.1245 39.6963 40.9471C37.6419 43.2374 35.461 45.4276 33.5347 47.8308C32.3402 49.321 31.0584 51.2853 33.7797 49.1873C37.6635 46.193 40.9257 42.2601 44.8441 39.3941C47.9941 37.0901 40.7248 46.0258 38.7874 49.4136C37.2991 52.0159 35.6662 54.5232 34.1359 57.099C32.9496 59.0959 33.2167 58.3697 34.2825 58.7393" stroke="#FDAFAB" stroke-width="16" stroke-linecap="round"/>
<path d="M30.8676 8.06918C27.1919 18.6704 24.1191 36.6492 10.8582 39.7482C2.27649 41.7537 5.8674 40.0877 13.6499 43.2296C20.7389 46.0915 28.2946 56.0818 31.1002 66.3671C33.5233 75.2498 37.2999 54.7622 38.3315 51.787C41.081 43.8568 46.5386 36.8225 53.7642 32.742C55.4674 31.7802 51.5794 34.101 41.9495 26.5293C36.0988 21.0572 32.0435 12.4893 32.1406 4.39754" stroke="#7B604E" stroke-width="8" stroke-linecap="round"/>
</svg>
