<svg width="44" height="57" viewBox="0 0 44 57" fill="none" xmlns="http://www.w3.org/2000/svg">
<path d="M21.9183 14.9415C19.6112 18.2162 19.4165 21.5215 17.9921 25.0818C17.21 27.0363 14.4108 29.3042 13.0242 31.0482C12.775 31.3617 11.874 33.4663 11.9336 33.4531C13.4363 33.1193 15.0959 31.1356 15.8593 29.9036C16.6008 28.707 17.6218 28.0971 18.0525 26.6932C18.5132 25.1912 19.2493 23.9679 20.3911 22.9012C21.0784 22.2591 25.5513 17.2483 23.0446 20.7328C21.2679 23.2025 19.1372 25.4008 17.5011 27.9713C16.5578 29.4533 15.0347 30.5634 14.381 32.2114C12.701 36.447 15.7516 32.9714 17.3555 31.2303C19.3245 29.0929 20.559 25.32 22.9474 23.798C23.4427 23.4824 24.0635 22.4577 24.68 22.4291C25.4338 22.3941 22.3998 27.1709 22.0869 27.6506C20.6693 29.8244 18.5701 31.357 16.907 33.3323C16.6274 33.6644 13.2979 38.0549 15.6286 36.5913C19.5966 34.0994 22.4157 29.6944 24.7767 25.8517C25.5455 24.6004 26.4811 23.4347 27.4787 22.3566C28.4496 21.3075 27.2787 23.3767 27.2727 23.3864C25.8696 25.663 24.4536 27.882 23.1892 30.2434C22.0284 32.4112 17.8944 38.5328 19.2147 36.4583C20.9996 33.6541 23.3989 31.3807 25.6245 28.9473C26.9663 27.4801 28.419 25.9051 29.5503 24.265C31.4623 21.4931 27.0766 28.7405 26.6361 29.329C25.4096 30.9677 24.0935 32.5477 22.9586 34.2536C22.2549 35.3115 21.5212 36.6887 23.2008 35.1381C25.5981 32.925 27.5281 30.1267 29.9558 27.9966C31.9075 26.2843 27.6169 32.6339 26.5326 34.993C25.6997 36.8051 24.7654 38.5629 23.9031 40.3599C23.2346 41.7531 23.3688 41.2561 24.0969 41.4382" stroke="#FAF1D6" stroke-width="20" stroke-linecap="round"/>
<path d="M16.7166 5.30354C14.2897 15.0074 13.003 25.3297 4.90527 32.108C3.58335 33.2145 9.09114 34.0431 10.0607 34.2856C13.4777 35.1402 15.6835 37.6231 17.898 40.243C21.1681 44.112 23.7992 48.621 26.8843 52.5579C28.6465 54.8066 29.0693 41.1574 29.8465 38.0495C30.9193 33.7602 32.3192 28.9388 36.083 26.1365C43.6995 20.4656 37.5526 21.1741 32.3214 19.8659C22.2301 17.3421 21.7287 11.8819 17.0302 4.04951" stroke="#7B604E" stroke-width="8" stroke-linecap="round"/>
</svg>
